<svg version="1.1" id="Layer_1" xmlns="http://www.w3.org/2000/svg" xmlns:xlink="http://www.w3.org/1999/xlink" x="0px" y="0px"
	 width="100%" viewBox="0 0 200 200" enable-background="new 0 0 200 200" xml:space="preserve">
<path fill="#01B25E" opacity="1.000000" stroke="none" 
	d="
M200.000000,201.000000 
	C134.312439,201.000000 68.624878,201.000000 2.469439,200.531342 
	C2.001042,133.708450 2.000521,67.354225 2.000000,1.000000 
	C67.687561,1.000000 133.375122,1.000000 199.530090,1.468656 
	C199.998337,68.291542 199.999161,134.645767 200.000000,201.000000 
M50.100697,78.965996 
	C49.973797,98.594833 49.674805,118.225128 49.841400,137.851471 
	C49.882881,142.738342 53.172306,146.468002 58.120415,147.241623 
	C63.247768,148.043259 68.531906,147.842102 74.012894,148.091629 
	C74.012894,129.623779 73.875893,112.138618 74.055000,94.656693 
	C74.206070,79.912003 71.173119,81.767410 87.954025,81.576584 
	C91.700859,81.533981 92.925117,83.356842 92.846649,86.820412 
	C92.737267,91.648659 92.908936,96.483269 92.799866,101.311531 
	C92.728905,104.453133 94.032166,105.893623 97.204567,105.914482 
	C111.796288,106.010429 108.935982,106.492378 109.171814,94.928894 
	C109.178604,94.595856 109.170410,94.262527 109.174339,93.929405 
	C109.337593,80.100792 107.528137,81.803307 121.931496,81.525734 
	C126.445602,81.438728 128.101776,82.956955 128.037918,87.577248 
	C127.826149,102.900116 127.966583,118.227844 127.971146,133.553711 
	C127.972519,138.173264 127.971359,142.792816 127.971359,147.955933 
	C131.979538,147.955933 135.433456,147.989716 138.886490,147.949371 
	C147.936432,147.843689 152.473099,143.494843 152.530609,134.469086 
	C152.636719,117.811188 152.503342,101.151810 152.592438,84.493713 
	C152.624130,78.568092 150.253082,74.342979 145.008224,71.506973 
	C132.563705,64.777946 120.163002,57.966358 107.804512,51.080582 
	C103.139786,48.481533 98.710754,48.534779 94.075256,51.121346 
	C81.720963,58.014938 69.233765,64.674454 56.976299,71.734169 
	C54.387985,73.224907 52.554420,76.026093 50.100697,78.965996 
M103.399872,147.968338 
	C105.165665,147.968338 106.931458,147.968338 109.128380,147.968338 
	C109.128380,140.414719 109.234489,133.484314 109.022873,126.563644 
	C108.988014,125.423561 107.644661,123.447342 106.760063,123.361488 
	C102.988808,122.995476 99.150093,123.026550 95.366089,123.311852 
	C94.485733,123.378220 93.040779,124.992508 93.015320,125.926186 
	C92.818573,133.142960 92.906906,140.367508 92.906906,147.965851 
	C96.532738,147.965851 99.487755,147.965851 103.399872,147.968338 
z"/>
<path fill="#21C878" opacity="1.000000" stroke="none" 
	d="
M1.500000,1.000000 
	C2.000521,67.354225 2.001042,133.708450 2.000781,200.531342 
	C1.666666,199.670807 1.042673,198.341812 1.041704,197.012375 
	C0.994086,131.674942 1.000000,66.337471 1.500000,1.000000 
z"/>
<path fill="#25C77B" opacity="1.000000" stroke="none" 
	d="
M200.500000,201.000000 
	C199.999161,134.645767 199.998337,68.291542 199.998749,1.468657 
	C200.333328,2.333335 200.957306,3.666457 200.958282,5.000032 
	C201.005936,70.333328 201.000000,135.666672 200.500000,201.000000 
z"/>
<path fill="#F7FDFB" opacity="1.000000" stroke="none" 
	d="
M50.236900,78.594742 
	C52.554420,76.026093 54.387985,73.224907 56.976299,71.734169 
	C69.233765,64.674454 81.720963,58.014938 94.075256,51.121346 
	C98.710754,48.534779 103.139786,48.481533 107.804512,51.080582 
	C120.163002,57.966358 132.563705,64.777946 145.008224,71.506973 
	C150.253082,74.342979 152.624130,78.568092 152.592438,84.493713 
	C152.503342,101.151810 152.636719,117.811188 152.530609,134.469086 
	C152.473099,143.494843 147.936432,147.843689 138.886490,147.949371 
	C135.433456,147.989716 131.979538,147.955933 127.971359,147.955933 
	C127.971359,142.792816 127.972519,138.173264 127.971146,133.553711 
	C127.966583,118.227844 127.826149,102.900116 128.037918,87.577248 
	C128.101776,82.956955 126.445602,81.438728 121.931496,81.525734 
	C107.528137,81.803307 109.337593,80.100792 109.174339,93.929405 
	C109.170410,94.262527 109.178604,94.595856 109.171814,94.928894 
	C108.935982,106.492378 111.796288,106.010429 97.204567,105.914482 
	C94.032166,105.893623 92.728905,104.453133 92.799866,101.311531 
	C92.908936,96.483269 92.737267,91.648659 92.846649,86.820412 
	C92.925117,83.356842 91.700859,81.533981 87.954025,81.576584 
	C71.173119,81.767410 74.206070,79.912003 74.055000,94.656693 
	C73.875893,112.138618 74.012894,129.623779 74.012894,148.091629 
	C68.531906,147.842102 63.247768,148.043259 58.120415,147.241623 
	C53.172306,146.468002 49.882881,142.738342 49.841400,137.851471 
	C49.674805,118.225128 49.973797,98.594833 50.236900,78.594742 
z"/>
<path fill="#F6FEFB" opacity="1.000000" stroke="none" 
	d="
M102.921318,147.967102 
	C99.487755,147.965851 96.532738,147.965851 92.906906,147.965851 
	C92.906906,140.367508 92.818573,133.142960 93.015320,125.926186 
	C93.040779,124.992508 94.485733,123.378220 95.366089,123.311852 
	C99.150093,123.026550 102.988808,122.995476 106.760063,123.361488 
	C107.644661,123.447342 108.988014,125.423561 109.022873,126.563644 
	C109.234489,133.484314 109.128380,140.414719 109.128380,147.968338 
	C106.931458,147.968338 105.165665,147.968338 102.921318,147.967102 
z"/>
</svg>